<?xml version="1.0" encoding="UTF-8"?>
<!-- Generated by Pixelmator Pro 3.3.5 -->
<svg width="256" height="224" viewBox="0 0 256 224" xmlns="http://www.w3.org/2000/svg">
    <path id="Path" fill="#0f0f0f" stroke="none" d="M 120.443199 171.199203 L 61.578159 150.031204 L 61.673038 126.031197 L 120.783203 149.231201 L 120.443199 171.199203 Z"/>
    <path id="path1" fill="#0f0f0f" stroke="none" d="M 71.91568 141.315994 L 71.91568 142.764008 L 110.103996 156.492004 L 110.103996 156.123993 L 71.91568 141.315994 L 71.91568 141.315994 Z M 55.733681 113.316002 C 56.566078 113.327202 57.389278 113.492798 58.1628 113.804001 L 124.434402 139.507996 C 126.143997 140.231201 127.620003 141.4216 128.696793 142.947205 C 129.772797 144.472 130.407196 146.270401 130.527206 148.139999 L 130.527206 179.5 C 130.582397 180.070404 130.5168 180.646393 130.335999 181.189606 C 130.155197 181.732803 129.862396 182.231201 129.4776 182.651993 C 129.092804 183.0728 128.624802 183.406403 128.103195 183.631195 C 127.581596 183.856003 127.019203 183.9664 126.452003 183.955994 C 125.765602 183.947205 125.086403 183.820007 124.442398 183.580002 L 58.170719 159.748001 C 56.327358 159.047195 54.720482 157.828003 53.538799 156.235199 C 52.357121 154.642395 51.649841 152.741592 51.50016 150.755997 L 51.50016 117.795998 C 51.4492 117.211197 51.521919 116.621597 51.71368 116.0672 C 51.905441 115.512802 52.211761 115.006401 52.61224 114.580803 C 53.012718 114.155998 53.498322 113.821602 54.03648 113.6008 C 54.574718 113.379997 55.153278 113.277603 55.733681 113.300003 L 55.733681 113.316002 Z"/>
    <path id="path2" fill="#0f0f0f" stroke="none" d="M 190.503204 131.931198 C 190.5448 131.639999 190.492004 131.342407 190.352798 131.083206 C 190.190399 130.9328 189.991196 130.828796 189.775208 130.782394 C 189.559998 130.735199 189.335999 130.748795 189.126404 130.819199 L 139.820801 150.219193 C 139.222397 150.4496 138.703201 150.849594 138.324799 151.371201 C 137.986404 152.002396 137.791199 152.702393 137.755203 153.419205 L 137.755203 166.603195 C 137.740799 166.796005 137.764008 166.990402 137.824005 167.174393 C 137.883194 167.358398 137.978394 167.528793 138.103195 167.675201 C 138.499207 168.003204 139.812805 167.507202 139.812805 167.507202 L 189.506393 148.403198 C 189.847198 148.274399 190.141602 148.046402 190.352798 147.747192 C 190.528 147.389603 190.612793 146.993607 190.598404 146.5952 L 190.503204 131.931198 Z M 199.452805 113.3312 C 200.0336 113.3088 200.612 113.411201 201.150406 113.632004 C 201.688797 113.852798 202.173599 114.187202 202.574402 114.612801 C 202.975204 115.037598 203.281601 115.543999 203.472794 116.098396 C 203.664795 116.652802 203.737595 117.242401 203.686401 117.827202 L 203.686401 150.819199 C 203.536804 152.804794 202.829605 154.705597 201.647995 156.298401 C 200.4664 157.891205 198.859207 159.110397 197.016006 159.811203 L 130.744797 183.643204 C 130.1008 183.883194 129.420807 184.010406 128.734406 184.019196 C 128.167999 184.029602 127.604797 183.919205 127.084 183.694397 C 126.562401 183.469604 126.093597 183.136002 125.708801 182.715195 C 125.323997 182.294403 125.031197 181.796005 124.850403 181.252808 C 124.669601 180.709595 124.604797 180.133606 124.659203 179.563202 L 124.659203 148.203201 C 124.779999 146.333603 125.413597 144.535202 126.490402 143.010406 C 127.566399 141.484802 129.042404 140.294403 130.751999 139.571198 L 197.024002 113.867203 C 197.796799 113.553596 198.619995 113.385597 199.452805 113.371201 L 199.452805 113.3312 Z"/>
    <path id="path3" fill="#f52e17" stroke="none" d="M 28.781679 93.003998 C 28.781679 91.620789 27.6728 90.5 26.30488 90.5 C 24.93704 90.5 23.828159 91.620789 23.828159 93.003998 L 23.828159 181.483994 C 23.828159 182.867203 24.93704 183.988007 26.30488 183.988007 C 27.6728 183.988007 28.781679 182.867203 28.781679 181.483994 L 28.781679 93.003998 Z"/>
    <path id="path4" fill="#f52e17" stroke="none" d="M 26.29744 171.040802 C 30.396721 171.040802 33.719841 167.366394 33.719841 162.832794 C 33.719841 158.300003 30.396721 154.624802 26.29744 154.624802 C 22.19816 154.624802 18.87504 158.300003 18.87504 162.832794 C 18.87504 167.366394 22.19816 171.040802 26.29744 171.040802 Z"/>
    <path id="path5" fill="#f52e17" stroke="none" d="M 234.342407 77.12793 L 133.206406 40.911926 C 129.753601 39.675201 125.984802 39.675201 122.531998 40.911926 L 21.371759 77.12793 C 19.783199 77.785431 18.42408 78.906082 17.46744 80.347198 C 16.510799 81.787994 16 83.484802 16 85.220001 C 16 86.9552 16.510799 88.651199 17.46744 90.092804 C 18.42408 91.5336 19.783199 92.654404 21.371759 93.311996 C 26.183359 95.499207 31.16408 97.283203 36.26408 98.648003 L 122.515999 129.528 C 125.968803 130.764801 129.737595 130.764801 133.190399 129.528 L 234.342407 93.311996 C 235.997604 92.720001 237.429596 91.623993 238.443207 90.174408 C 239.455994 88.725601 240 86.9944 240 85.220001 C 240 83.445602 239.455994 81.714401 238.443207 80.265594 C 237.429596 78.816071 235.997604 77.720001 234.342407 77.12793 Z"/>
</svg>
